#!OML:ASF H:\MichaelJackson\Top Level 1\Subject 1\Session 1\male.ASF
:FULLY-SPECIFIED
:DEGREES
1029
root -4.58152 15.6314 26.9494 -165.597 175.988 173.45
lowerback 7.80369 -0.286558 1.2125
upperback -1.02998 -0.0848833 3.31006
thorax -5.45609 -0.0253859 2.78233
lowerneck -9.0266 -5.28659 -0.538453
upperneck -2.14547 -7.01945 2.64421
head 0.951816 -3.46648 0.659712
rclavicle 2.13694e-015 3.00662e-015
rhumerus -38.8443 2.73731 -86.8839
rradius 45.3957
rwrist 9.08404
rhand -41.1834 -29.1662
rfingers 7.12502
rthumb -14.1084 -418.667
lclavicle 2.13694e-015 3.00662e-015
lhumerus -47.9027 -15.181 106.752
lradius 54.8043
lwrist 18.8365
lhand -14.6072 6.44663
lfingers 7.12502
lthumb 11.5436 36.1087
rfemur -45.5245 -14.4867 29.3564
rtibia 64.7595
rfoot -27.6404 0.392837
rtoes -13.6859
lfemur -49.8128 -11.2607 -17.2211
ltibia 72.8502
lfoot -24.8691 12.8581
ltoes 16.5731
1030
root -4.64718 15.5791 26.9516 -165.796 175.897 173.452
lowerback 7.93456 -0.279554 1.22145
upperback -0.986744 -0.0724236 3.29787
thorax -5.48545 -0.0197147 2.76399
lowerneck -8.94379 -5.26149 -0.547667
upperneck -2.39662 -6.97975 2.62761
head 0.856672 -3.44986 0.663667
rclavicle 3.24889e-015 -3.14328e-014
rhumerus -38.0973 2.65894 -86.9375
rradius 45.2833
rwrist 9.30082
rhand -40.82 -29.6357
rfingers 7.12502
rthumb -13.7582 -419.161
lclavicle 3.24889e-015 -3.14328e-014
lhumerus -47.0962 -16.1642 106.748
lradius 54.3362
lwrist 18.8596
lhand -14.5116 7.04717
lfingers 7.12502
lthumb 11.6358 36.7041
rfemur -45.7318 -14.7125 29.6967
rtibia 65.5097
rfoot -27.9526 0.3871
rtoes -12.6376
lfemur -50.2038 -11.3693 -16.7306
ltibia 73.7985
lfoot -24.9522 12.2096
ltoes 16.1644
1031
root -4.71079 15.5287 26.9542 -165.972 175.773 173.489
lowerback 8.02766 -0.289127 1.23377
upperback -0.968763 -0.0831089 3.26766
thorax -5.51895 -0.0257812 2.72761
lowerneck -8.87181 -5.23694 -0.558371
upperneck -2.60126 -6.94156 2.59865
head 0.778042 -3.43351 0.662958
rclavicle 6.26793e-015 -3.598e-014
rhumerus -37.445 2.7587 -86.9921
rradius 45.3187
rwrist 9.64562
rhand -40.1476 -30.1043
rfingers 7.12502
rthumb -13.1101 -419.672
lclavicle 6.26793e-015 -3.598e-014
lhumerus -46.348 -17.1778 106.674
lradius 53.9667
lwrist 18.7903
lhand -14.2729 7.55466
lfingers 7.12502
lthumb 11.8659 37.1984
rfemur -45.9494 -14.9697 29.9916
rtibia 66.2276
rfoot -28.2552 0.380723
rtoes -11.7721
lfemur -50.572 -11.4198 -16.3386
ltibia 74.6559
lfoot -25.007 11.6172
ltoes 15.6795
1032
root -4.77256 15.4816 26.9572 -166.125 175.627 173.567
lowerback 8.08798 -0.313328 1.23444
upperback -0.971767 -0.11555 3.22472
thorax -5.55504 -0.0423707 2.68714
lowerneck -8.82376 -5.212 -0.574871
upperneck -2.76606 -6.90304 2.54778
head 0.715603 -3.4166 0.655205
rclavicle 1.98785e-015 -2.45002e-014
rhumerus -36.9196 3.08457 -87.0482
rradius 45.5849
rwrist 9.95968
rhand -39.2128 -30.5017
rfingers 7.12502
rthumb -12.2089 -420.125
lclavicle 1.98785e-015 -2.45002e-014
lhumerus -45.6694 -18.1891 106.525
lradius 53.7504
lwrist 18.6141
lhand -13.8673 7.91969
lfingers 7.12502
lthumb 12.2571 37.5405
rfemur -46.1666 -15.2301 30.2251
rtibia 66.8934
rfoot -28.529 0.377925
rtoes -11.0989
lfemur -50.8859 -11.3955 -16.0851
ltibia 75.3844
lfoot -25.0663 11.1706
ltoes 15.2563
1033
root -4.83292 15.4394 26.9604 -166.259 175.471 173.684
lowerback 8.12283 -0.345085 1.21213
upperback -0.992758 -0.161198 3.17191
thorax -5.59507 -0.0648649 2.65094
lowerneck -8.78055 -5.18868 -0.600442
upperneck -2.92115 -6.86612 2.4769
head 0.656744 -3.40043 0.642448
rclavicle -3.13272e-014 3.34952e-014
rhumerus -36.5573 3.64806 -87.1002
rradius 46.1584
rwrist 10.079
rhand -38.0964 -30.7549
rfingers 7.12502
rthumb -11.1322 -420.44
lclavicle -3.13272e-014 3.34952e-014
lhumerus -45.0826 -19.1892 106.308
lradius 53.7436
lwrist 18.3352
lhand -13.3576 8.08181
lfingers 7.12502
lthumb 12.7485 37.6726
rfemur -46.3275 -15.4648 30.3916
rtibia 67.357
rfoot -28.6918 0.377614
rtoes -10.633
lfemur -51.083 -11.2843 -15.9907
ltibia 75.8454
lfoot -25.1132 10.9225
ltoes 14.9635
1034
root -4.89229 15.4041 26.9642 -166.375 175.319 173.836
lowerback 8.12789 -0.378026 1.15731
upperback -1.02752 -0.212608 3.11327
thorax -5.63239 -0.089246 2.62755
lowerneck -8.74349 -5.16558 -0.626713
upperneck -3.07269 -6.82965 2.38144
head 0.599198 -3.38457 0.622049
rclavicle -9.44227e-015 -8.82107e-016
rhumerus -36.3844 4.44408 -87.1385
rradius 47.0862
rwrist 9.88036
rhand -36.9047 -30.7929
rfingers 7.12502
rthumb -9.98269 -420.536
lclavicle -9.44227e-015 -8.82107e-016
lhumerus -44.5972 -20.1658 106.022
lradius 53.9905
lwrist 17.9406
lhand -12.8007 8.10068
lfingers 7.12502
lthumb 13.2853 37.6572
rfemur -46.4284 -15.6426 30.4947
rtibia 67.6832
rfoot -28.8506 0.334714
rtoes -10.311
lfemur -51.1364 -11.088 -16.052
ltibia 76.0895
lfoot -25.2368 10.9681
ltoes 14.5135
1035
root -4.94896 15.4341 26.9698 -166.469 175.179 174.005
lowerback 8.09365 -0.406921 1.06958
upperback -1.07751 -0.26268 3.05562
thorax -5.6633 -0.111867 2.62329
lowerneck -8.70574 -5.14175 -0.659659
upperneck -3.21994 -6.79196 2.27684
head 0.542908 -3.36792 0.599945
rclavicle -5.8393e-015 2.69602e-015
rhumerus -36.4252 5.44123 -87.1469
rradius 48.3905
rwrist 9.31076
rhand -35.7553 -30.5768
rfingers 7.12502
rthumb -8.87371 -420.37
lclavicle -5.8393e-015 2.69602e-015
lhumerus -44.2325 -21.1247 105.68
lradius 54.5094
lwrist 17.4639
lhand -12.3516 7.97212
lfingers 7.12502
lthumb 13.7182 37.4999
rfemur -46.1855 -15.7508 30.5445
rtibia 67.5659
rfoot -29.0378 0.257112
rtoes -9.87898
lfemur -50.7443 -10.8147 -16.2179
ltibia 75.8081
lfoot -25.4651 11.3036
ltoes 13.7942
1036
root -5.00709 15.4198 26.9768 -166.535 175.049 174.177
lowerback 8.00428 -0.429629 0.953141
upperback -1.1432 -0.30808 3.00556
thorax -5.67936 -0.131113 2.64198
lowerneck -8.67804 -5.11768 -0.694436
upperneck -3.34708 -6.75436 2.17237
head 0.49484 -3.35089 0.57761
rclavicle -2.5345e-015 1.30452e-014
rhumerus -36.6833 6.5745 -87.1031
rradius 50.0574
rwrist 8.4382
rhand -34.7152 -30.0966
rfingers 7.12502
rthumb -7.86985 -419.93
lclavicle -2.5345e-015 1.30452e-014
lhumerus -43.987 -22.0789 105.294
lradius 55.2898
lwrist 16.9434
lhand -12.1516 7.7229
lfingers 7.12502
lthumb 13.9109 37.2376
rfemur -46.0459 -15.7611 30.5876
rtibia 67.438
rfoot -29.2811 0.0766375
rtoes -9.31778
lfemur -50.4298 -10.5379 -16.4417
ltibia 75.4959
lfoot -25.7913 11.896
ltoes 12.7707
1037
root -5.06445 15.4194 26.9863 -166.553 174.918 174.328
lowerback 7.8397 -0.446267 0.825676
upperback -1.23521 -0.346838 2.96877
thorax -5.68038 -0.14643 2.67913
lowerneck -8.66991 -5.09012 -0.727466
upperneck -3.42818 -6.71301 2.083
head 0.465099 -3.33123 0.558495
rclavicle 3.60297e-016 1.28216e-014
rhumerus -37.1558 7.76506 -86.9881
rradius 52.0399
rwrist 7.42196
rhand -33.8356 -29.3427
rfingers 7.12502
rthumb -7.0209 -419.206
lclavicle 3.60297e-016 1.28216e-014
lhumerus -43.854 -23.0409 104.866
lradius 56.2958
lwrist 16.427
lhand -12.2911 7.38786
lfingers 7.12502
lthumb 13.7765 36.9117
rfemur -45.7734 -15.6841 30.6565
rtibia 67.0227
rfoot -29.5476 -0.209061
rtoes -8.56921
lfemur -49.9493 -10.3066 -16.6176
ltibia 74.8712
lfoot -26.1957 12.6227
ltoes 11.5217
1038
root -5.1209 15.4344 26.9986 -166.514 174.771 174.443
lowerback 7.5995 -0.459428 0.701154
upperback -1.3638 -0.380321 2.94726
thorax -5.67686 -0.158788 2.72927
lowerneck -8.69393 -5.06058 -0.750656
upperneck -3.43475 -6.67071 2.01824
head 0.464766 -3.31016 0.543334
rclavicle 1.32751e-014 4.19933e-015
rhumerus -37.8376 8.92823 -86.7888
rradius 54.272
rwrist 6.47348
rhand -33.1329 -28.3218
rfingers 7.12502
rthumb -6.3425 -418.207
lclavicle 1.32751e-014 4.19933e-015
lhumerus -43.8363 -24.0272 104.4
lradius 57.4992
lwrist 15.9875
lhand -12.7708 7.05993
lfingers 7.12502
lthumb 13.3141 36.6146
rfemur -45.4159 -15.5271 30.7757
rtibia 66.4323
rfoot -29.8618 -0.625823
rtoes -7.70206
lfemur -49.3595 -10.19 -16.6636
ltibia 74.0367
lfoot -26.7403 13.3421
ltoes 10.3132
1039
root -5.1764 15.4659 27.0135 -166.416 174.584 174.516
lowerback 7.29308 -0.476392 0.591499
upperback -1.53699 -0.41664 2.93755
thorax -5.68225 -0.172486 2.78327
lowerneck -8.75772 -5.02841 -0.754188
upperneck -3.34942 -6.6275 1.98884
head 0.500639 -3.28763 0.533371
rclavicle 8.35517e-015 -6.83322e-015
rhumerus -38.7164 9.99134 -86.5018
rradius 56.6853
rwrist 5.80608
rhand -32.5816 -27.0828
rfingers 7.12502
rthumb -5.81024 -416.983
lclavicle 8.35517e-015 -6.83322e-015
lhumerus -43.9201 -25.0453 103.887
lradius 58.854
lwrist 15.6946
lhand -13.5266 6.78649
lfingers 7.12502
lthumb 12.5855 36.3874
rfemur -44.9698 -15.3033 30.9524
rtibia 65.5741
rfoot -30.0701 -1.11709
rtoes -6.70373
lfemur -48.6918 -10.2447 -16.5244
ltibia 72.9254
lfoot -27.3261 13.8684
ltoes 9.50553
1040
root -5.23093 15.5143 27.031 -166.27 174.34 174.554
lowerback 6.93505 -0.504146 0.494287
upperback -1.75058 -0.465309 2.93574
thorax -5.69991 -0.19216 2.83961
lowerneck -8.86605 -4.99634 -0.739517
upperneck -3.17509 -6.58696 2.00416
head 0.573216 -3.26524 0.531565
rclavicle 9.11925e-015 1.53313e-014
rhumerus -39.7643 10.9282 -86.1311
rradius 59.2018
rwrist 5.53058
rhand -32.1869 -25.6855
rfingers 7.12502
rthumb -5.4292 -415.596
lclavicle 9.11925e-015 1.53313e-014
lhumerus -44.0852 -26.0853 103.311
lradius 60.3382
lwrist 15.6008
lhand -14.4074 6.60898
lfingers 7.12502
lthumb 11.7363 36.2602
rfemur -44.4518 -15.0344 31.1684
rtibia 64.4834
rfoot -30.1075 -1.61094
rtoes -5.58385
lfemur -47.9838 -10.497 -16.1916
ltibia 71.5801
lfoot -27.8688 14.1078
ltoes 9.15269
